<?xml version="1.0" encoding="utf-8"?>
<!-- Generator: Adobe Illustrator 26.4.1, SVG Export Plug-In . SVG Version: 6.00 Build 0)  -->
<svg version="1.1" id="Vrstva_2_00000010300480925906923750000013259586914456053421_"
	 xmlns="http://www.w3.org/2000/svg" xmlns:xlink="http://www.w3.org/1999/xlink" x="0px" y="0px" viewBox="0 0 74.7 952.2"
	 style="enable-background:new 0 0 74.7 952.2;" xml:space="preserve">
<style type="text/css">
	.st0{fill:#FF9E1B;}
	.st1{fill:#FF9E1B;enable-background:new    ;}
</style>
<g>
	<g>
		<polygon class="st0" points="74.7,87.7 74.7,140.2 61.9,140.2 61.9,100.5 22.2,100.5 22.2,87.7 		"/>
		<polygon class="st0" points="54.1,108.3 54.1,140.2 41.3,140.2 41.3,121.1 22.2,121.1 22.2,108.3 		"/>
		<polygon class="st1" points="56.3,149.6 56.3,162.4 0,162.4 0,108.3 12.8,108.3 12.8,149.6 		"/>
	</g>
	<g>
		<polygon class="st0" points="74.7,0 74.7,52.6 61.9,52.6 61.9,12.8 22.2,12.8 22.2,0 		"/>
		<polygon class="st0" points="54.1,20.6 54.1,52.6 41.3,52.6 41.3,33.4 22.2,33.4 22.2,20.6 		"/>
		<polygon class="st1" points="56.3,61.9 56.3,74.7 0,74.7 0,20.6 12.8,20.6 12.8,61.9 		"/>
	</g>
	<g>
		<polygon class="st0" points="74.7,263 74.7,315.5 61.9,315.5 61.9,275.8 22.2,275.8 22.2,263 		"/>
		<polygon class="st0" points="54.1,283.6 54.1,315.5 41.3,315.5 41.3,296.4 22.2,296.4 22.2,283.6 		"/>
		<polygon class="st1" points="56.3,324.9 56.3,337.7 0,337.7 0,283.6 12.8,283.6 12.8,324.9 		"/>
	</g>
	<g>
		<polygon class="st0" points="74.7,175.3 74.7,227.9 61.9,227.9 61.9,188.1 22.2,188.1 22.2,175.3 		"/>
		<polygon class="st0" points="54.1,195.9 54.1,227.9 41.3,227.9 41.3,208.8 22.2,208.8 22.2,195.9 		"/>
		<polygon class="st1" points="56.3,237.2 56.3,250 0,250 0,195.9 12.8,195.9 12.8,237.2 		"/>
	</g>
	<g>
		<polygon class="st0" points="74.7,438.3 74.7,490.9 61.9,490.9 61.9,451.1 22.2,451.1 22.2,438.3 		"/>
		<polygon class="st0" points="54.1,458.9 54.1,490.9 41.3,490.9 41.3,471.8 22.2,471.8 22.2,458.9 		"/>
		<polygon class="st1" points="56.3,500.2 56.3,513 0,513 0,458.9 12.8,458.9 12.8,500.2 		"/>
	</g>
	<g>
		<polygon class="st0" points="74.7,350.6 74.7,403.2 61.9,403.2 61.9,363.5 22.2,363.5 22.2,350.6 		"/>
		<polygon class="st0" points="54.1,371.3 54.1,403.2 41.3,403.2 41.3,384.1 22.2,384.1 22.2,371.3 		"/>
		<polygon class="st1" points="56.3,412.5 56.3,425.3 0,425.3 0,371.3 12.8,371.3 12.8,412.5 		"/>
	</g>
	<g>
		<polygon class="st0" points="74.7,613.6 74.7,666.2 61.9,666.2 61.9,626.4 22.2,626.4 22.2,613.6 		"/>
		<polygon class="st0" points="54.1,634.3 54.1,666.2 41.3,666.2 41.3,647.1 22.2,647.1 22.2,634.3 		"/>
		<polygon class="st1" points="56.3,675.5 56.3,688.3 0,688.3 0,634.3 12.8,634.3 12.8,675.5 		"/>
	</g>
	<g>
		<polygon class="st0" points="74.7,526 74.7,578.5 61.9,578.5 61.9,538.8 22.2,538.8 22.2,526 		"/>
		<polygon class="st0" points="54.1,546.6 54.1,578.5 41.3,578.5 41.3,559.4 22.2,559.4 22.2,546.6 		"/>
		<polygon class="st1" points="56.3,587.9 56.3,600.7 0,600.7 0,546.6 12.8,546.6 12.8,587.9 		"/>
	</g>
	<g>
		<polygon class="st0" points="74.7,789 74.7,841.5 61.9,841.5 61.9,801.8 22.2,801.8 22.2,789 		"/>
		<polygon class="st0" points="54.1,809.6 54.1,841.5 41.3,841.5 41.3,822.4 22.2,822.4 22.2,809.6 		"/>
		<polygon class="st1" points="56.3,850.8 56.3,863.7 0,863.7 0,809.6 12.8,809.6 12.8,850.8 		"/>
	</g>
	<g>
		<polygon class="st0" points="74.7,877.5 74.7,930 61.9,930 61.9,890.3 22.2,890.3 22.2,877.5 		"/>
		<polygon class="st0" points="54.1,898.1 54.1,930 41.3,930 41.3,910.9 22.2,910.9 22.2,898.1 		"/>
		<polygon class="st1" points="56.3,939.4 56.3,952.2 0,952.2 0,898.1 12.8,898.1 12.8,939.4 		"/>
	</g>
	<g>
		<polygon class="st0" points="74.7,701.3 74.7,753.8 61.9,753.8 61.9,714.1 22.2,714.1 22.2,701.3 		"/>
		<polygon class="st0" points="54.1,721.9 54.1,753.8 41.3,753.8 41.3,734.7 22.2,734.7 22.2,721.9 		"/>
		<polygon class="st1" points="56.3,763.2 56.3,776 0,776 0,721.9 12.8,721.9 12.8,763.2 		"/>
	</g>
</g>
</svg>
