<?xml version="1.0" encoding="UTF-8"?><svg id="SQUARE_MONO_BLACK" xmlns="http://www.w3.org/2000/svg" viewBox="0 0 311.81 311.81"><defs><style>.cls-1{fill:#27251f;}</style></defs><g id="LOGO"><g id="TEXT"><path id="c" class="cls-1" d="M95.86,224.97v-3.55c-.64-.11-1.3-.17-1.95-.17-1.79,0-3.04,.52-3.75,1.56-.71,1.04-1.06,2.69-1.06,4.94,0,2.25,.37,3.92,1.1,5.01,.74,1.08,2.03,1.62,3.88,1.62,1.92,0,3.83-.27,5.68-.78l.65,4.16c-2.12,.59-4.3,.88-6.5,.87-6.41,0-9.62-3.61-9.62-10.83,0-3.73,.73-6.45,2.19-8.17,1.46-1.72,3.89-2.58,7.3-2.58,2.14,0,4.26,.27,6.33,.82v7.11h-4.25Z"/><path id="o" class="cls-1" d="M106.8,219.74c1.47-1.75,3.74-2.62,6.8-2.62,3.06,0,5.33,.87,6.8,2.62,1.47,1.75,2.21,4.44,2.21,8.08,0,3.64-.74,6.35-2.21,8.13-1.47,1.78-3.74,2.66-6.8,2.66-3.06,0-5.33-.89-6.8-2.66-1.47-1.78-2.21-4.49-2.21-8.13,0-3.64,.74-6.33,2.21-8.08Zm3.49,3.1c-.59,1.01-.89,2.67-.89,4.98,0,2.31,.3,3.99,.91,5.03,.61,1.04,1.7,1.56,3.29,1.56,1.59,0,2.69-.52,3.29-1.56,.61-1.04,.91-2.72,.91-5.03,0-2.31-.3-3.97-.89-4.98-.59-1.01-1.7-1.52-3.31-1.52-1.62,0-2.72,.51-3.31,1.52h0Z"/><path id="a" class="cls-1" d="M133.5,238.53c-4.62,0-6.93-2.2-6.93-6.59,0-2.34,.74-3.98,2.23-4.92,1.49-.94,3.55-1.41,6.17-1.41,1.24,0,2.66,.07,4.25,.22,0-1.73-.25-2.92-.74-3.55-.49-.64-1.34-.95-2.56-.95-1.43,.02-2.85,.17-4.25,.43-1.26,.2-2.51,.49-3.73,.87l-.82-4.12c2.88-.9,5.87-1.37,8.88-1.39,2.89,0,4.89,.64,6,1.91,1.11,1.27,1.67,3.42,1.67,6.46v8.8l.48,3.81-4.46,.43-.43-1.99c-2.43,1.33-4.35,1.99-5.76,1.99Zm.69-4.2c.92-.02,1.83-.21,2.69-.56,.84-.3,1.63-.72,2.34-1.26v-3.03c-1.73-.14-3.15-.22-4.25-.22-2.4,0-3.6,.9-3.6,2.69,0,1.59,.94,2.38,2.82,2.38h0Z"/><path id="l" class="cls-1" d="M148.13,238.66v-4.01h6.49v-21.6l-5.62,.04-.04-3.96,10.15-.04v25.56h6.14v4.01h-17.11Z"/><path id="i" class="cls-1" d="M169.01,238.66v-4.03h6.53v-13.37h-6.18v-4.03h10.69v17.4h6.18v4.03h-17.22Zm8.57-23.73c-.78,.04-1.55-.25-2.1-.81-.53-.58-.8-1.34-.77-2.13-.04-.78,.25-1.54,.79-2.1,.57-.54,1.34-.83,2.13-.79,.76-.05,1.51,.23,2.06,.77,.51,.59,.77,1.35,.72,2.12,.04,.79-.22,1.56-.75,2.15-.55,.55-1.31,.83-2.08,.79Z"/><path id="o-2" class="cls-1" d="M191.4,219.74c1.47-1.75,3.74-2.62,6.8-2.62,3.06,0,5.33,.87,6.8,2.62,1.47,1.75,2.21,4.44,2.21,8.08,0,3.64-.74,6.35-2.21,8.13-1.47,1.78-3.74,2.66-6.8,2.66-3.06,0-5.33-.89-6.8-2.66-1.47-1.78-2.21-4.49-2.21-8.13,0-3.64,.74-6.33,2.21-8.08Zm3.49,3.1c-.59,1.01-.89,2.67-.89,4.98,0,2.31,.3,3.99,.91,5.03,.61,1.04,1.7,1.56,3.29,1.56s2.69-.52,3.29-1.56c.61-1.04,.91-2.72,.91-5.03,0-2.31-.3-3.97-.89-4.98-.59-1.01-1.7-1.52-3.31-1.52-1.62,0-2.72,.51-3.31,1.52Z"/><path id="s" class="cls-1" d="M211.36,237.1l.95-3.94c2.74,.87,4.92,1.3,6.54,1.3,1.62,0,2.72-.16,3.29-.48,.58-.29,.92-.91,.87-1.56,.06-.64-.24-1.25-.78-1.6-.93-.46-1.92-.8-2.95-1-2.86-.69-4.85-1.47-5.98-2.32-1.13-.85-1.69-2.24-1.69-4.18,0-4.13,2.66-6.2,7.97-6.2,2.68,.05,5.34,.43,7.93,1.13l-.82,4.12c-2.86-.81-5.07-1.21-6.63-1.21-1.56,0-2.61,.14-3.14,.41-.53,.26-.85,.82-.8,1.41-.04,.6,.28,1.16,.8,1.45,1.34,.58,2.72,1.04,4.14,1.36,2.22,.61,3.86,1.31,4.9,2.1s1.56,2.15,1.56,4.05c0,4.36-2.69,6.54-8.06,6.54-2.76-.04-5.49-.51-8.1-1.39Z"/></g><path id="SYMBOL" class="cls-1" d="M101.67,73.09v108.39h108.46V73.09H101.67Zm72.43,94.58h-58.54v-58.44h13.86v44.6h44.69v13.84Zm0-22.34h-13.84v-22.27h-17v-13.84h30.84v36.1Zm22.23,.04h-13.84v-44.55h-39.22v-13.84h53.07v58.38Z"/></g></svg>