<?xml version="1.0" encoding="UTF-8"?><svg id="LONG_MONO_BLACK" xmlns="http://www.w3.org/2000/svg" viewBox="0 0 566.93 141.73"><defs><style>.cls-1{fill:#27251f;}</style></defs><g id="LOGO"><g id="TEXT"><path id="c" class="cls-1" d="M224.13,73.04v-7.02c-1.27-.23-2.56-.34-3.85-.34-3.54,0-6.01,1.03-7.4,3.08-1.4,2.05-2.1,5.31-2.1,9.76,0,4.45,.73,7.75,2.18,9.89,1.45,2.14,4.01,3.21,7.66,3.21,3.79-.02,7.56-.54,11.21-1.54l1.28,8.22c-4.18,1.17-8.5,1.74-12.84,1.71-12.67,0-19-7.13-19-21.39,0-7.36,1.44-12.74,4.32-16.13,2.88-3.39,7.69-5.09,14.42-5.09,4.22-.01,8.42,.53,12.49,1.63v14.04h-8.39Z"/><path id="o" class="cls-1" d="M245.75,62.73c2.91-3.45,7.39-5.18,13.44-5.18,6.05,0,10.53,1.73,13.44,5.18,2.91,3.45,4.36,8.77,4.36,15.96,0,7.19-1.45,12.54-4.36,16.05-2.91,3.51-7.39,5.26-13.44,5.26-6.05,0-10.53-1.75-13.44-5.26-2.91-3.51-4.36-8.86-4.36-16.05,0-7.19,1.45-12.51,4.36-15.96Zm6.89,6.12c-1.17,2-1.76,5.28-1.75,9.84,0,4.57,.6,7.87,1.8,9.93,1.2,2.05,3.37,3.08,6.5,3.08,3.14,0,5.31-1.03,6.5-3.08,1.2-2.05,1.8-5.36,1.8-9.93,0-4.56-.58-7.85-1.75-9.84-1.17-2-3.35-2.99-6.55-2.99-3.2,0-5.38,1-6.55,2.99h0Z"/><path id="a" class="cls-1" d="M298.47,99.83c-9.13,0-13.69-4.34-13.69-13.01,0-4.62,1.47-7.86,4.41-9.71,2.94-1.85,7-2.78,12.19-2.78,2.45,0,5.25,.14,8.39,.43,0-3.42-.48-5.76-1.45-7.02-.97-1.26-2.65-1.88-5.05-1.88-2.82,.04-5.62,.33-8.39,.86-2.49,.4-4.95,.98-7.36,1.71l-1.63-8.13c5.68-1.78,11.59-2.7,17.54-2.74,5.7,0,9.66,1.25,11.85,3.76,2.2,2.51,3.29,6.76,3.3,12.75v17.37l.94,7.53-8.81,.85-.86-3.94c-4.79,2.63-8.59,3.94-11.38,3.94Zm1.37-8.3c1.82-.05,3.62-.42,5.31-1.11,1.66-.59,3.22-1.43,4.62-2.48v-5.99c-3.42-.29-6.22-.43-8.39-.43-4.74,0-7.1,1.77-7.1,5.31,0,3.14,1.85,4.71,5.56,4.71h0Z"/><path id="l" class="cls-1" d="M327.37,100.09v-7.91h12.81V49.51l-11.09,.09-.09-7.83,20.04-.09v50.49h12.13v7.91h-33.8Z"/><path id="i" class="cls-1" d="M368.61,100.09v-7.96h12.9v-26.4h-12.2v-7.96h21.12v34.37h12.2v7.96h-34.02Zm16.92-46.88c-1.55,.08-3.06-.5-4.15-1.6-1.04-1.14-1.58-2.65-1.51-4.2-.07-1.54,.49-3.04,1.56-4.15,1.13-1.07,2.64-1.64,4.2-1.56,1.51-.1,2.99,.45,4.07,1.52,1.01,1.16,1.52,2.66,1.43,4.2,.08,1.55-.44,3.08-1.47,4.24-1.09,1.08-2.58,1.65-4.11,1.56Z"/><path id="o-2" class="cls-1" d="M412.83,62.73c2.91-3.45,7.39-5.18,13.44-5.18,6.05,0,10.53,1.73,13.44,5.18,2.91,3.45,4.36,8.77,4.36,15.96,0,7.19-1.45,12.54-4.36,16.05-2.91,3.51-7.39,5.26-13.44,5.26-6.05,0-10.53-1.75-13.44-5.26-2.91-3.51-4.36-8.86-4.36-16.05,0-7.19,1.45-12.51,4.36-15.96Zm6.89,6.12c-1.17,2-1.76,5.28-1.75,9.84,0,4.57,.6,7.87,1.8,9.93,1.2,2.05,3.37,3.08,6.5,3.08s5.31-1.03,6.5-3.08c1.2-2.05,1.8-5.36,1.8-9.93,0-4.56-.58-7.85-1.75-9.84-1.17-2-3.35-2.99-6.55-2.99-3.2,0-5.38,1-6.55,2.99Z"/><path id="s" class="cls-1" d="M452.26,97l1.88-7.79c5.42,1.71,9.73,2.57,12.92,2.57,3.19,0,5.36-.31,6.5-.94,1.15-.58,1.83-1.8,1.71-3.08,.11-1.26-.48-2.48-1.54-3.17-1.84-.92-3.8-1.58-5.82-1.97-5.65-1.37-9.59-2.89-11.81-4.58-2.22-1.68-3.34-4.43-3.34-8.26,0-8.16,5.25-12.24,15.75-12.24,5.29,.11,10.55,.86,15.66,2.23l-1.63,8.13c-5.65-1.6-10.01-2.39-13.09-2.4-3.08,0-5.15,.27-6.2,.81-1.04,.52-1.67,1.62-1.58,2.78-.07,1.18,.54,2.3,1.58,2.87,2.64,1.14,5.37,2.04,8.17,2.69,4.39,1.2,7.62,2.58,9.67,4.15s3.08,4.24,3.08,8c0,8.61-5.31,12.92-15.92,12.92-5.44-.08-10.84-1-16-2.74Z"/></g><path id="SYMBOL" class="cls-1" d="M82.75,31.66V110.08h78.42V31.66H82.75Zm52.37,68.43h-42.33V57.81h10.02v32.27h32.31v10.01Zm0-16.16h-10.01v-16.11h-12.29v-10.01h22.3v26.12Zm16.07,.03h-10.01V51.73h-28.36v-10.01h38.37v42.24Z"/></g></svg>