<?xml version="1.0" encoding="UTF-8"?><svg id="COALIOS" xmlns="http://www.w3.org/2000/svg" viewBox="0 0 200 1000"><defs><style>.cls-1{fill:#ff9e1b;}</style></defs><g id="PRUH"><g><polygon class="cls-1" points="137.35 111.57 137.35 164.13 124.55 164.13 124.55 124.38 84.81 124.38 84.81 111.57 137.35 111.57"/><polygon class="cls-1" points="116.73 132.2 116.73 164.13 103.93 164.13 103.93 145.01 84.81 145.01 84.81 132.2 116.73 132.2"/><polygon class="cls-1" points="119.01 173.46 119.01 186.26 62.65 186.26 62.65 132.2 75.4 132.2 75.4 173.46 119.01 173.46"/></g><g><polygon class="cls-1" points="137.35 23.91 137.35 76.47 124.55 76.47 124.55 36.72 84.81 36.72 84.81 23.91 137.35 23.91"/><polygon class="cls-1" points="116.73 44.54 116.73 76.47 103.93 76.47 103.93 57.35 84.81 57.35 84.81 44.54 116.73 44.54"/><polygon class="cls-1" points="119.01 85.8 119.01 98.6 62.65 98.6 62.65 44.54 75.4 44.54 75.4 85.8 119.01 85.8"/></g><g><polygon class="cls-1" points="137.35 286.89 137.35 339.45 124.55 339.45 124.55 299.7 84.81 299.7 84.81 286.89 137.35 286.89"/><polygon class="cls-1" points="116.73 307.52 116.73 339.45 103.93 339.45 103.93 320.33 84.81 320.33 84.81 307.52 116.73 307.52"/><polygon class="cls-1" points="119.01 348.78 119.01 361.59 62.65 361.59 62.65 307.52 75.4 307.52 75.4 348.78 119.01 348.78"/></g><g><polygon class="cls-1" points="137.35 199.23 137.35 251.79 124.55 251.79 124.55 212.04 84.81 212.04 84.81 199.23 137.35 199.23"/><polygon class="cls-1" points="116.73 219.86 116.73 251.79 103.93 251.79 103.93 232.67 84.81 232.67 84.81 219.86 116.73 219.86"/><polygon class="cls-1" points="119.01 261.12 119.01 273.93 62.65 273.93 62.65 219.86 75.4 219.86 75.4 261.12 119.01 261.12"/></g><g><polygon class="cls-1" points="137.35 462.21 137.35 514.78 124.55 514.78 124.55 475.02 84.81 475.02 84.81 462.21 137.35 462.21"/><polygon class="cls-1" points="116.73 482.84 116.73 514.78 103.93 514.78 103.93 495.65 84.81 495.65 84.81 482.84 116.73 482.84"/><polygon class="cls-1" points="119.01 524.1 119.01 536.91 62.65 536.91 62.65 482.84 75.4 482.84 75.4 524.1 119.01 524.1"/></g><g><polygon class="cls-1" points="137.35 374.55 137.35 427.12 124.55 427.12 124.55 387.36 84.81 387.36 84.81 374.55 137.35 374.55"/><polygon class="cls-1" points="116.73 395.18 116.73 427.12 103.93 427.12 103.93 407.99 84.81 407.99 84.81 395.18 116.73 395.18"/><polygon class="cls-1" points="119.01 436.44 119.01 449.25 62.65 449.25 62.65 395.18 75.4 395.18 75.4 436.44 119.01 436.44"/></g><g><polygon class="cls-1" points="137.35 637.54 137.35 690.1 124.55 690.1 124.55 650.35 84.81 650.35 84.81 637.54 137.35 637.54"/><polygon class="cls-1" points="116.73 658.17 116.73 690.1 103.93 690.1 103.93 670.98 84.81 670.98 84.81 658.17 116.73 658.17"/><polygon class="cls-1" points="119.01 699.43 119.01 712.23 62.65 712.23 62.65 658.17 75.4 658.17 75.4 699.43 119.01 699.43"/></g><g><polygon class="cls-1" points="137.35 549.87 137.35 602.44 124.55 602.44 124.55 562.68 84.81 562.68 84.81 549.87 137.35 549.87"/><polygon class="cls-1" points="116.73 570.51 116.73 602.44 103.93 602.44 103.93 583.32 84.81 583.32 84.81 570.51 116.73 570.51"/><polygon class="cls-1" points="119.01 611.76 119.01 624.57 62.65 624.57 62.65 570.51 75.4 570.51 75.4 611.76 119.01 611.76"/></g><g><polygon class="cls-1" points="137.35 812.86 137.35 865.42 124.55 865.42 124.55 825.67 84.81 825.67 84.81 812.86 137.35 812.86"/><polygon class="cls-1" points="116.73 833.49 116.73 865.42 103.93 865.42 103.93 846.3 84.81 846.3 84.81 833.49 116.73 833.49"/><polygon class="cls-1" points="119.01 874.75 119.01 887.55 62.65 887.55 62.65 833.49 75.4 833.49 75.4 874.75 119.01 874.75"/></g><g><polygon class="cls-1" points="137.35 901.4 137.35 953.96 124.55 953.96 124.55 914.21 84.81 914.21 84.81 901.4 137.35 901.4"/><polygon class="cls-1" points="116.73 922.03 116.73 953.96 103.93 953.96 103.93 934.84 84.81 934.84 84.81 922.03 116.73 922.03"/><polygon class="cls-1" points="119.01 963.29 119.01 976.09 62.65 976.09 62.65 922.03 75.4 922.03 75.4 963.29 119.01 963.29"/></g><g><polygon class="cls-1" points="137.35 725.2 137.35 777.76 124.55 777.76 124.55 738.01 84.81 738.01 84.81 725.2 137.35 725.2"/><polygon class="cls-1" points="116.73 745.83 116.73 777.76 103.93 777.76 103.93 758.64 84.81 758.64 84.81 745.83 116.73 745.83"/><polygon class="cls-1" points="119.01 787.09 119.01 799.89 62.65 799.89 62.65 745.83 75.4 745.83 75.4 787.09 119.01 787.09"/></g></g></svg>